<?xml version="1.0" encoding="UTF-8"?>
<svg fill="none" viewBox="0 0 25 25" xmlns="http://www.w3.org/2000/svg">
<g clip-path="url(#a)">
<path d="m16.502 22.051v-3.87c0.0375-0.4768-0.0269-0.9562-0.189-1.4062s-0.4181-0.8604-0.751-1.2038c3.14-0.35 6.44-1.54 6.44-7-3e-4 -1.3962-0.5373-2.7388-1.5-3.75 0.4558-1.2215 0.4236-2.5716-0.09-3.77 0 0-1.18-0.35-3.91 1.48-2.292-0.62118-4.708-0.62118-7 0-2.73-1.83-3.91-1.48-3.91-1.48-0.51362 1.1984-0.54585 2.5485-0.09 3.77-0.96987 1.0187-1.5075 2.3735-1.5 3.78 0 5.42 3.3 6.61 6.44 7-0.329 0.34-0.58277 0.7454-0.74473 1.1899-0.16195 0.4445-0.2285 0.9182-0.19531 1.3901v3.87m0-3c-5 1.5-5-2.5-7-3l7 3z" stroke="#980F1F" stroke-linecap="round" stroke-linejoin="round" stroke-width="2"/>
</g>
<defs>
<clipPath id="a">
<rect transform="translate(.50146 .050903)" width="24" height="24" fill="#fff"/>
</clipPath>
</defs>
</svg>
