<?xml version="1.0" encoding="UTF-8"?>
<svg fill="none" viewBox="0 0 25 25" xmlns="http://www.w3.org/2000/svg">
<path d="m16.502 8.0509c1.5913 0 3.1174 0.63214 4.2426 1.7574 1.1252 1.1252 1.7574 2.6513 1.7574 4.2426v7h-4v-7c0-0.5304-0.2107-1.0391-0.5858-1.4142s-0.8838-0.5858-1.4142-0.5858c-0.5305 0-1.0392 0.2107-1.4142 0.5858-0.3751 0.3751-0.5858 0.8838-0.5858 1.4142v7h-4v-7c0-1.5913 0.6321-3.1174 1.7573-4.2426 1.1252-1.1252 2.6514-1.7574 4.2427-1.7574v0z" stroke="#980F1F" stroke-linecap="round" stroke-linejoin="round" stroke-width="2"/>
<path d="m6.5015 9.0509h-4v12h4v-12z" stroke="#980F1F" stroke-linecap="round" stroke-linejoin="round" stroke-width="2"/>
<path d="m4.5015 6.0509c1.1046 0 2-0.89543 2-2s-0.89543-2-2-2c-1.1046 0-2 0.89543-2 2s0.89544 2 2 2z" stroke="#980F1F" stroke-linecap="round" stroke-linejoin="round" stroke-width="2"/>
</svg>
