<?xml version="1.0" encoding="UTF-8"?>
<svg viewBox="0 0 82 29" xmlns="http://www.w3.org/2000/svg">
<path d="m10.68 24c-0.16 0-0.272-0.072-0.336-0.216l-3-6.648c-0.032-0.064-0.08-0.096-0.144-0.096h-2.232c-0.08 0-0.12 0.04-0.12 0.12v6.552c0 0.08-0.032 0.152-0.096 0.216-0.048 0.048-0.112 0.072-0.192 0.072h-2.808c-0.08 0-0.152-0.024-0.216-0.072-0.048-0.064-0.072-0.136-0.072-0.216v-16.224c0-0.08 0.024-0.144 0.072-0.192 0.064-0.064 0.136-0.096 0.216-0.096h6.864c1.024 0 1.92 0.208 2.688 0.624 0.784 0.416 1.384 1.008 1.8 1.776 0.432 0.768 0.648 1.656 0.648 2.664 0 1.088-0.272 2.024-0.816 2.808-0.544 0.768-1.304 1.312-2.28 1.632-0.08 0.032-0.104 0.088-0.072 0.168l3.264 6.792c0.032 0.064 0.048 0.112 0.048 0.144 0 0.128-0.088 0.192-0.264 0.192h-2.952zm-5.712-13.896c-0.08 0-0.12 0.04-0.12 0.12v4.104c0 0.08 0.04 0.12 0.12 0.12h3.144c0.672 0 1.216-0.2 1.632-0.6 0.432-0.4 0.648-0.92 0.648-1.56s-0.216-1.16-0.648-1.56c-0.416-0.416-0.96-0.624-1.632-0.624h-3.144zm22.27 13.896c-0.16 0-0.264-0.08-0.312-0.24l-0.72-2.352c-0.032-0.064-0.072-0.096-0.12-0.096h-5.904c-0.048 0-0.088 0.032-0.12 0.096l-0.696 2.352c-0.048 0.16-0.152 0.24-0.312 0.24h-3.048c-0.096 0-0.168-0.024-0.216-0.072-0.048-0.064-0.056-0.152-0.024-0.264l5.184-16.224c0.048-0.16 0.152-0.24 0.3119-0.24h3.7681c0.16 0 0.264 0.08 0.312 0.24l5.184 16.224c0.016 0.032 0.024 0.072 0.024 0.12 0 0.144-0.088 0.216-0.264 0.216h-3.048zm-6.312-5.448c-0.016 0.096 0.016 0.144 0.096 0.144h4.224c0.096 0 0.128-0.048 0.096-0.144l-2.16-7.128c-0.016-0.064-0.04-0.088-0.072-0.072-0.032 0-0.056 0.024-0.072 0.072l-2.112 7.128zm23.374-8.736c0 0.08-0.032 0.152-0.096 0.216-0.048 0.048-0.112 0.072-0.192 0.072h-7.848c-0.08 0-0.12 0.04-0.12 0.12v3.72c0 0.08 0.04 0.12 0.12 0.12h5.16c0.08 0 0.144 0.032 0.192 0.096 0.064 0.048 0.096 0.112 0.096 0.192v2.328c0 0.08-0.032 0.152-0.096 0.216-0.048 0.048-0.112 0.072-0.192 0.072h-5.16c-0.08 0-0.12 0.04-0.12 0.12v6.624c0 0.08-0.032 0.152-0.096 0.216-0.048 0.048-0.112 0.072-0.192 0.072h-2.808c-0.08 0-0.152-0.024-0.216-0.072-0.048-0.064-0.072-0.136-0.072-0.216v-16.224c0-0.08 0.024-0.144 0.072-0.192 0.064-0.064 0.136-0.096 0.216-0.096h11.064c0.08 0 0.144 0.032 0.192 0.096 0.064 0.048 0.096 0.112 0.096 0.192v2.328zm10.595 14.184c-0.16 0-0.264-0.08-0.312-0.24l-0.72-2.352c-0.032-0.064-0.072-0.096-0.12-0.096h-5.904c-0.048 0-0.088 0.032-0.12 0.096l-0.696 2.352c-0.048 0.16-0.152 0.24-0.312 0.24h-3.048c-0.096 0-0.168-0.024-0.216-0.072-0.048-0.064-0.056-0.152-0.024-0.264l5.184-16.224c0.048-0.16 0.152-0.24 0.312-0.24h3.768c0.16 0 0.264 0.08 0.312 0.24l5.184 16.224c0.016 0.032 0.024 0.072 0.024 0.12 0 0.144-0.088 0.216-0.264 0.216h-3.048zm-6.312-5.448c-0.016 0.096 0.016 0.144 0.096 0.144h4.224c0.096 0 0.128-0.048 0.096-0.144l-2.16-7.128c-0.016-0.064-0.04-0.088-0.072-0.072-0.032 0-0.056 0.024-0.072 0.072l-2.112 7.128z" fill="#F0F5EF"/>
<path d="m60.488 26c-0.1067 0-0.16-0.0533-0.16-0.16v-10.88c0-0.1067 0.0533-0.16 0.16-0.16h3.12c0.9493 0 1.696 0.272 2.24 0.816 0.5547 0.544 0.832 1.2853 0.832 2.224v5.12c0 0.9387-0.2773 1.68-0.832 2.224-0.544 0.544-1.2907 0.816-2.24 0.816h-3.12zm0.976-1.056c0 0.0427 0.0213 0.064 0.064 0.064h2.096c0.5867-0.0107 1.0507-0.2027 1.392-0.576 0.3413-0.384 0.5173-0.9067 0.528-1.568v-4.928c0-0.6613-0.1707-1.184-0.512-1.568s-0.8107-0.576-1.408-0.576h-2.096c-0.0427 0-0.064 0.0213-0.064 0.064v9.088zm10.064 0.192c0.4053 0 0.752-0.1013 1.04-0.304 0.2986-0.2133 0.512-0.496 0.64-0.848 0.032-0.096 0.096-0.1333 0.192-0.112l0.736 0.144c0.0533 0.0107 0.0853 0.0373 0.096 0.08 0.0213 0.032 0.0266 0.0693 0.016 0.112-0.1814 0.5973-0.512 1.0667-0.992 1.408s-1.0614 0.512-1.744 0.512c-0.7787 0-1.4134-0.2027-1.904-0.608-0.4907-0.416-0.7947-0.976-0.912-1.68-0.0427-0.2667-0.0694-0.5813-0.08-0.944-0.0107-0.3627-0.016-0.6613-0.016-0.896v-0.512c0-0.544 0.0213-0.9867 0.064-1.328 0.0853-0.7147 0.3786-1.2907 0.88-1.728 0.512-0.4373 1.152-0.656 1.92-0.656 0.8213 0 1.488 0.2347 2 0.704s0.8 1.088 0.864 1.856c0.032 0.352 0.048 0.9973 0.048 1.936 0 0.1067-0.0534 0.16-0.16 0.16h-4.416c-0.0427 0-0.064 0.0213-0.064 0.064 0 0.3307 0.0106 0.6987 0.032 1.104 0.0533 0.4587 0.2346 0.832 0.544 1.12 0.32 0.2773 0.7253 0.416 1.216 0.416zm-0.048-6.368c-0.48 0-0.8747 0.144-1.184 0.432-0.2987 0.2773-0.4747 0.6453-0.528 1.104-0.0214 0.448-0.032 0.8213-0.032 1.12 0 0.0427 0.0213 0.064 0.064 0.064h3.376c0.0426 0 0.064-0.0213 0.064-0.064 0-0.3093-0.0214-0.6773-0.064-1.104-0.0534-0.4587-0.2347-0.832-0.544-1.12-0.2987-0.288-0.6827-0.432-1.152-0.432zm6.527 7.232c-0.0854 0-0.144-0.0427-0.176-0.128l-2.32-7.792-0.016-0.048c0-0.0853 0.0533-0.128 0.16-0.128h0.896c0.096 0 0.1546 0.048 0.176 0.144l1.696 6.24c0.0106 0.0213 0.0213 0.032 0.032 0.032 0.0213 0 0.0373-0.0107 0.048-0.032l1.68-6.24c0.0213-0.096 0.08-0.144 0.176-0.144l0.912 0.016c0.0533 0 0.0906 0.016 0.112 0.048 0.032 0.032 0.0426 0.0747 0.032 0.128l-2.304 7.776c-0.032 0.0853-0.0907 0.128-0.176 0.128h-0.928z" fill="#980F1F"/>
</svg>
