<?xml version="1.0" encoding="UTF-8"?>
<svg fill="none" viewBox="0 0 24 24" xmlns="http://www.w3.org/2000/svg">
<path d="m21 12.79c-0.1573 1.7022-0.7961 3.3244-1.8418 4.6768-1.0456 1.3524-2.4547 2.379-4.0625 2.9597-1.6078 0.5808-3.3477 0.6916-5.0162 0.3196-1.6685-0.372-3.1965-1.2116-4.4053-2.4203-1.2088-1.2088-2.0483-2.7368-2.4203-4.4053s-0.26119-3.4084 0.31955-5.0162c0.58074-1.6078 1.6074-3.0169 2.9598-4.0626 1.3524-1.0456 2.9746-1.6844 4.6768-1.8418-0.9966 1.3483-1.4762 3.0094-1.3515 4.6814 0.12469 1.672 0.84537 3.2437 2.0309 4.4292s2.7572 1.9062 4.4292 2.0309 3.3331-0.3549 4.6814-1.3515z" stroke="#000" stroke-linecap="round" stroke-linejoin="round" stroke-width="2"/>
</svg>
