<svg width="503" height="600" viewBox="0 0 503 600" fill="none" xmlns="http://www.w3.org/2000/svg">
<g clip-path="url(#clip0)">
<path d="M299.142 142.582H295.846V52.2703C295.846 38.4073 290.339 25.1122 280.538 15.3096C270.736 5.50708 257.443 3.81939e-05 243.581 2.28883e-05H52.2644C38.4031 -9.90946e-06 25.1094 5.50698 15.308 15.3095C5.50648 25.1121 3.71665e-05 38.4072 0 52.2701V547.73C-6.55881e-06 561.593 5.50639 574.888 15.3078 584.69C25.1093 594.493 38.4029 600 52.2643 600H243.581C257.443 600 270.736 594.493 280.538 584.69C290.339 574.888 295.846 561.593 295.846 547.73V206.868H299.142L299.142 142.582Z" fill="#3F3D56"/>
<path d="M284.723 52.6347V547.365C284.724 556.787 281.317 565.892 275.131 572.999C268.945 580.105 260.397 584.734 251.065 586.031C249.285 586.28 247.489 586.404 245.691 586.402H53.4477C51.6497 586.404 49.8538 586.28 48.0731 586.031C38.7429 584.732 30.1971 580.103 24.0127 572.996C17.8282 565.89 14.4224 556.786 14.4238 547.365V52.6347C14.424 42.2816 18.5364 32.3526 25.8563 25.0318C33.1762 17.7111 43.1041 13.5982 53.456 13.598H76.7764C75.6261 16.4141 75.1864 19.4699 75.4961 22.4961C75.8057 25.5222 76.8552 28.4257 78.552 30.9503C80.2487 33.475 82.5406 35.5433 85.2255 36.9727C87.9103 38.4022 90.9057 39.1489 93.9473 39.147H203.551C206.592 39.1486 209.587 38.4016 212.271 36.9719C214.956 35.5422 217.247 33.4737 218.943 30.9489C220.639 28.4241 221.688 25.5207 221.996 22.4947C222.305 19.4688 221.865 16.4134 220.713 13.598H245.691C256.043 13.5983 265.971 17.7111 273.29 25.0318C280.61 32.3526 284.723 42.2816 284.723 52.6347Z" fill="white"/>
<path d="M284.723 421.97V547.365C284.724 556.788 281.317 565.892 275.131 572.999C268.945 580.105 260.397 584.734 251.065 586.031H48.0731C38.7429 584.732 30.1971 580.103 24.0127 572.996C17.8282 565.89 14.4224 556.786 14.4238 547.365V421.97H284.723Z" fill="#E6E6E6"/>
<path d="M149.573 529.821C163.832 529.821 175.391 518.261 175.391 504C175.391 489.74 163.832 478.179 149.573 478.179C135.314 478.179 123.755 489.74 123.755 504C123.755 518.261 135.314 529.821 149.573 529.821Z" fill="white"/>
<path d="M165.064 504H151.123V490.057H148.024V504H134.082V507.099H148.024V521.042H151.123V507.099H165.064V504Z" fill="#E6E6E6"/>
<path d="M195.417 341.673V364.865L183.509 378.655C183.509 378.655 178.495 376.774 178.495 364.238L176.615 346.061L195.417 341.673Z" fill="#FFB9B9"/>
<path d="M183.509 364.865C183.509 364.865 202.938 351.702 203.564 347.315C204.191 342.927 222.199 323.176 227.38 335.405C232.271 346.947 212.487 356.84 212.487 356.84C212.487 356.84 198.551 382.416 189.15 381.789C179.749 381.162 179.749 369.253 183.509 364.865Z" fill="#FFB9B9"/>
<path d="M172.228 505.896L170.348 517.179L180.376 514.671V505.896H172.228Z" fill="#FFB9B9"/>
<path d="M174.108 512.164C174.108 512.164 185.698 505.297 186.17 508.417C186.643 511.537 191.657 523.446 194.163 524.7C196.67 525.953 199.804 539.743 194.163 539.116C189.795 538.631 173.772 530.249 166.767 526.494C165.905 526.029 165.254 525.252 164.948 524.321C164.642 523.391 164.704 522.378 165.122 521.492C165.533 520.732 165.816 519.91 165.961 519.059C165.961 517.805 174.108 512.164 174.108 512.164Z" fill="#2F2E41"/>
<path d="M168.467 384.923C168.467 384.923 214.219 406.234 209.832 422.531C205.445 438.828 189.15 507.776 189.15 507.776C189.15 507.776 170.974 512.164 169.721 507.776C168.468 503.389 181.629 435.067 180.375 432.56C179.122 430.053 155.933 413.756 155.933 413.756L108.301 393.698L128.357 374.894L168.467 384.923Z" fill="#2F2E41"/>
<path d="M202.938 509.657L208.579 524.074L198.551 528.461L192.283 517.179L202.938 509.657Z" fill="#FFB9B9"/>
<path d="M169.094 282.127C169.094 282.127 163.454 289.649 167.841 293.41C172.228 297.17 169.094 310.96 169.094 310.96L163.454 326.63L140.891 322.243V296.544L142.145 284.008C142.145 284.008 153.426 273.352 154.679 265.204C155.933 257.055 169.094 282.127 169.094 282.127Z" fill="#FFB9B9"/>
<path d="M131.49 379.908C131.49 379.908 160.947 412.502 160.947 413.756C160.947 415.009 176.615 440.708 176.615 440.708L207.325 509.03C207.325 509.03 195.417 525.327 190.403 524.073C185.389 522.819 149.665 450.11 149.665 450.11C149.665 450.11 143.398 433.813 126.476 430.053C109.555 426.292 96.3933 413.129 102.661 398.086C108.928 383.042 131.49 379.908 131.49 379.908Z" fill="#2F2E41"/>
<path d="M169.094 286.515C180.171 286.515 189.15 277.535 189.15 266.457C189.15 255.38 180.171 246.4 169.094 246.4C158.018 246.4 149.039 255.38 149.039 266.457C149.039 277.535 158.018 286.515 169.094 286.515Z" fill="#FFB9B9"/>
<path d="M168.468 299.051C168.468 299.051 165.961 313.467 163.454 314.721C160.947 315.975 159.067 320.362 153.426 314.094C147.785 307.826 142.772 295.29 142.772 295.29L123.343 319.109L121.463 384.923C121.463 384.923 143.398 379.282 150.292 384.923C157.186 390.564 172.228 389.937 172.228 389.937L169.094 377.401L171.601 356.09L170.974 336.659L170.348 322.869L168.468 299.051Z" fill="#FF7B32"/>
<path d="M166.26 288.501C166.26 288.501 174.735 292.783 175.362 295.29C175.988 297.797 187.27 302.812 187.27 302.812C187.27 302.812 191.657 307.199 191.657 309.707C191.657 312.214 176.615 341.047 176.615 341.047C176.615 341.047 173.481 360.478 174.735 364.238C175.988 367.999 172.228 382.416 172.228 382.416L179.749 391.191H172.855C172.855 391.191 165.334 387.43 165.334 385.55C165.334 383.669 166.587 370.506 167.214 364.865C167.841 359.224 167.841 339.166 166.587 332.271C165.334 325.377 165.961 307.199 165.961 302.812C165.961 298.424 166.26 288.501 166.26 288.501Z" fill="#3F3D56"/>
<path d="M146.845 278.983C146.845 278.983 144.025 279.62 135.877 282.127C127.73 284.635 115.195 288.395 110.808 293.41C107.729 297.118 105.001 301.105 102.661 305.319L105.168 350.449C105.168 350.449 100.154 359.851 100.781 364.865C101.407 369.88 106.421 370.506 102.661 381.162C98.9003 391.818 91.3796 401.22 98.2736 402.473C105.168 403.727 123.343 399.339 131.49 401.847C139.638 404.354 149.039 392.445 149.039 392.445C149.039 392.445 136.504 393.698 138.384 388.684C140.265 383.669 160.947 327.257 156.56 314.721C152.173 302.185 146.845 278.983 146.845 278.983Z" fill="#3F3D56"/>
<path d="M188.523 306.573L191.657 309.08C191.657 309.08 200.431 340.42 197.924 343.554C195.417 346.688 175.362 353.583 174.108 349.195C172.855 344.808 188.523 306.573 188.523 306.573Z" fill="#3F3D56"/>
<path d="M95.7666 328.511C95.7666 328.511 86.3657 355.463 86.3657 362.985C86.3657 370.506 87.6191 414.383 87.6191 414.383C87.6191 414.383 93.8864 440.719 107.048 433.198C120.209 425.676 101.407 413.129 101.407 413.129C101.407 413.129 102.034 363.612 107.048 356.717C112.062 349.822 113.942 339.793 113.942 339.793L95.7666 328.511Z" fill="#FFB9B9"/>
<path d="M198.551 523.446C198.551 523.446 207.952 518.432 209.832 522.193C211.712 525.953 221.74 546.638 220.486 549.145C219.233 551.652 212.339 561.681 204.191 559.174C196.044 556.667 195.417 543.504 195.417 543.504L194.79 528.461L198.551 523.446Z" fill="#2F2E41"/>
<path d="M173.021 261.612C171.64 262.263 170.001 262.651 169.133 263.907C168.49 264.838 168.426 266.048 167.956 267.078C167.444 268.097 166.562 268.883 165.491 269.275C164.419 269.666 163.239 269.635 162.19 269.187C161.934 267.938 161.208 266.835 160.162 266.107C159.634 265.759 159.008 265.59 158.377 265.625C157.746 265.66 157.143 265.896 156.656 266.299C155.364 267.531 155.821 269.679 155.218 271.359C154.652 272.541 153.874 273.608 152.922 274.508C151.55 276.091 150.457 277.948 148.805 279.236C147.153 280.523 144.648 281.081 143.007 279.78C141.627 278.686 141.341 276.667 141.676 274.937C142.011 273.208 142.842 271.616 143.311 269.918C144.834 264.401 142.406 258.511 143.157 252.837C144.12 245.567 150.298 239.825 157.194 237.333C160.064 236.164 163.206 235.831 166.257 236.372C169.411 237.077 172.105 239.085 175.126 240.233C178.356 241.461 181.869 241.676 185.249 242.394C188.629 243.112 192.108 244.5 194.069 247.345C195.438 249.33 195.908 251.795 197.042 253.922C198.347 256.35 200.461 258.244 203.017 259.276L199.444 259.072C200.043 260.667 201.02 262.093 202.291 263.228C200.615 263.57 198.874 263.339 197.344 262.574C197.372 263.309 197.55 264.03 197.867 264.693C198.184 265.356 198.634 265.947 199.189 266.429C196.439 266.346 193.539 266.22 191.216 264.747C190.078 264.025 189.15 263.02 188.079 262.202C185.796 260.459 182.964 259.631 180.203 258.839C178.753 258.423 177.009 257.844 175.698 258.777C174.606 259.553 174.433 260.948 173.021 261.612Z" fill="#2F2E41"/>
<path d="M112.062 297.797L102.661 305.319L90.1261 334.152C90.1261 334.152 107.675 347.942 112.062 346.061C116.449 344.181 123.97 310.96 123.97 310.96L112.062 297.797Z" fill="#3F3D56"/>
<path d="M232.957 341.181C233.086 341.027 233.083 340.813 232.952 340.703C232.82 340.593 232.609 340.629 232.48 340.784C232.352 340.938 232.354 341.152 232.485 341.262C232.617 341.372 232.828 341.336 232.957 341.181Z" fill="#F2F2F2"/>
<path d="M223.901 285.736C222.822 285.737 221.788 286.167 221.025 286.93C220.262 287.693 219.833 288.727 219.832 289.806V357.951C219.833 359.03 220.262 360.064 221.025 360.828C221.788 361.591 222.822 362.02 223.901 362.021H498.583C499.662 362.02 500.696 361.591 501.459 360.828C502.222 360.064 502.651 359.03 502.652 357.951V289.806C502.651 288.727 502.222 287.693 501.459 286.93C500.696 286.167 499.662 285.737 498.583 285.736H223.901Z" fill="white"/>
<path d="M223.901 285.736C222.822 285.737 221.788 286.167 221.025 286.93C220.262 287.693 219.833 288.727 219.832 289.806V357.951C219.833 359.03 220.262 360.064 221.025 360.828C221.788 361.591 222.822 362.02 223.901 362.021H498.583C499.662 362.02 500.696 361.591 501.459 360.828C502.222 360.064 502.651 359.03 502.652 357.951V289.806C502.651 288.727 502.222 287.693 501.459 286.93C500.696 286.167 499.662 285.737 498.583 285.736H223.901Z" fill="#E6E6E6"/>
<path d="M224.409 357.442H498.074V290.315H224.409V357.442Z" fill="white"/>
<path d="M259.508 345.245C271.307 345.245 280.872 335.679 280.872 323.878C280.872 312.078 271.307 302.512 259.508 302.512C247.709 302.512 238.144 312.078 238.144 323.878C238.144 335.679 247.709 345.245 259.508 345.245Z" fill="#FF7B32"/>
<path d="M308.849 309.634C307.905 309.636 307.001 310.011 306.335 310.679C305.668 311.347 305.294 312.252 305.294 313.195C305.294 314.139 305.668 315.044 306.335 315.711C307.001 316.379 307.905 316.755 308.849 316.756H476.71C477.654 316.756 478.56 316.381 479.228 315.713C479.895 315.045 480.271 314.14 480.271 313.195C480.271 312.251 479.895 311.345 479.228 310.677C478.56 310.009 477.654 309.634 476.71 309.634H308.849Z" fill="#E6E6E6"/>
<path d="M308.849 331.001C307.905 331.002 307.001 331.378 306.335 332.046C305.668 332.713 305.294 333.618 305.294 334.562C305.294 335.505 305.668 336.41 306.335 337.078C307.001 337.746 307.905 338.121 308.849 338.123H476.71C477.654 338.123 478.56 337.748 479.228 337.08C479.895 336.412 480.271 335.506 480.271 334.562C480.271 333.617 479.895 332.712 479.228 332.044C478.56 331.376 477.654 331.001 476.71 331.001H308.849Z" fill="#E6E6E6"/>
<path d="M48.0758 79.8325C47.2796 79.8334 46.5163 80.1501 45.9533 80.7131C45.3903 81.2762 45.0736 82.0396 45.0728 82.8359V133.124C45.0736 133.921 45.3902 134.684 45.9532 135.247C46.5162 135.81 47.2796 136.127 48.0758 136.128H250.782C251.578 136.127 252.341 135.81 252.904 135.247C253.467 134.684 253.784 133.921 253.785 133.124V82.8359C253.784 82.0396 253.467 81.2762 252.904 80.7131C252.341 80.1501 251.578 79.8334 250.782 79.8325H48.0758Z" fill="white"/>
<path d="M48.0758 79.8325C47.2796 79.8334 46.5163 80.1501 45.9533 80.7131C45.3903 81.2762 45.0736 82.0396 45.0728 82.8359V133.124C45.0736 133.921 45.3902 134.684 45.9532 135.247C46.5162 135.81 47.2796 136.127 48.0758 136.128H250.782C251.578 136.127 252.341 135.81 252.904 135.247C253.467 134.684 253.784 133.921 253.785 133.124V82.8359C253.784 82.0396 253.467 81.2762 252.904 80.7131C252.341 80.1501 251.578 79.8334 250.782 79.8325H48.0758Z" fill="#E6E6E6"/>
<path d="M48.451 132.749H250.406V83.2115H48.451V132.749Z" fill="white"/>
<path d="M74.3524 123.748C83.0598 123.748 90.1184 116.688 90.1184 107.98C90.1184 99.2718 83.0598 92.2123 74.3524 92.2123C65.6451 92.2123 58.5864 99.2718 58.5864 107.98C58.5864 116.688 65.6451 123.748 74.3524 123.748Z" fill="#FF7B32"/>
<path d="M110.764 97.4683C110.068 97.4683 109.399 97.7451 108.906 98.238C108.414 98.7308 108.137 99.3992 108.137 100.096C108.137 100.793 108.414 101.462 108.906 101.954C109.399 102.447 110.068 102.724 110.764 102.724H234.64C235.337 102.724 236.006 102.447 236.498 101.954C236.991 101.462 237.268 100.793 237.268 100.096C237.268 99.3992 236.991 98.7308 236.498 98.238C236.006 97.7451 235.337 97.4683 234.64 97.4683H110.764Z" fill="#E6E6E6"/>
<path d="M110.764 113.236C110.068 113.237 109.401 113.515 108.909 114.007C108.418 114.5 108.141 115.168 108.141 115.864C108.141 116.56 108.418 117.228 108.909 117.721C109.401 118.213 110.068 118.491 110.764 118.492H234.64C234.986 118.493 235.328 118.425 235.647 118.293C235.967 118.161 236.257 117.968 236.501 117.724C236.746 117.48 236.94 117.19 237.072 116.871C237.204 116.552 237.273 116.21 237.273 115.864C237.273 115.519 237.204 115.176 237.072 114.857C236.94 114.538 236.746 114.248 236.501 114.004C236.257 113.76 235.967 113.567 235.647 113.435C235.328 113.303 234.986 113.235 234.64 113.236H110.764Z" fill="#E6E6E6"/>
<path d="M48.0758 169.695C47.2796 169.696 46.5163 170.013 45.9533 170.576C45.3903 171.139 45.0736 171.902 45.0728 172.698V222.987C45.0736 223.783 45.3902 224.547 45.9532 225.11C46.5162 225.673 47.2796 225.99 48.0758 225.991H250.782C251.578 225.99 252.341 225.673 252.904 225.11C253.467 224.547 253.784 223.783 253.785 222.987V172.698C253.784 171.902 253.467 171.139 252.904 170.576C252.341 170.013 251.578 169.696 250.782 169.695H48.0758Z" fill="white"/>
<path d="M48.0758 169.695C47.2796 169.696 46.5163 170.013 45.9533 170.576C45.3903 171.139 45.0736 171.902 45.0728 172.698V222.987C45.0736 223.783 45.3902 224.547 45.9532 225.11C46.5162 225.673 47.2796 225.99 48.0758 225.991H250.782C251.578 225.99 252.341 225.673 252.904 225.11C253.467 224.547 253.784 223.783 253.785 222.987V172.698C253.784 171.902 253.467 171.139 252.904 170.576C252.341 170.013 251.578 169.696 250.782 169.695H48.0758Z" fill="#E6E6E6"/>
<path d="M48.451 222.612H250.406V173.074H48.451V222.612Z" fill="white"/>
<path d="M74.3524 213.61C83.0598 213.61 90.1184 206.551 90.1184 197.843C90.1184 189.134 83.0598 182.075 74.3524 182.075C65.6451 182.075 58.5864 189.134 58.5864 197.843C58.5864 206.551 65.6451 213.61 74.3524 213.61Z" fill="#FF7B32"/>
<path d="M110.764 187.331C110.068 187.331 109.399 187.608 108.906 188.101C108.414 188.593 108.137 189.262 108.137 189.959C108.137 190.656 108.414 191.324 108.906 191.817C109.399 192.31 110.068 192.587 110.764 192.587H234.64C235.337 192.587 236.006 192.31 236.498 191.817C236.991 191.324 237.268 190.656 237.268 189.959C237.268 189.262 236.991 188.593 236.498 188.101C236.006 187.608 235.337 187.331 234.64 187.331H110.764Z" fill="#E6E6E6"/>
<path d="M110.764 203.099C110.068 203.1 109.401 203.377 108.909 203.87C108.418 204.363 108.141 205.03 108.141 205.727C108.141 206.423 108.418 207.09 108.909 207.583C109.401 208.076 110.068 208.353 110.764 208.355H234.64C235.337 208.355 236.006 208.078 236.498 207.585C236.991 207.092 237.268 206.424 237.268 205.727C237.268 205.03 236.991 204.361 236.498 203.868C236.006 203.375 235.337 203.099 234.64 203.099H110.764Z" fill="#E6E6E6"/>
</g>
<defs>
<clipPath id="clip0">
<rect width="502.652" height="600" fill="white"/>
</clipPath>
</defs>
</svg>
