<svg width="126" height="34" viewBox="0 0 126 34" fill="none" xmlns="http://www.w3.org/2000/svg">
<path d="M15.456 27L11.452 21.26C11.284 21.2787 11.032 21.288 10.696 21.288H6.272V27H2.632V7.4H10.696C12.3947 7.4 13.8693 7.68 15.12 8.24C16.3893 8.8 17.36 9.60267 18.032 10.648C18.704 11.6933 19.04 12.9347 19.04 14.372C19.04 15.8467 18.676 17.116 17.948 18.18C17.2387 19.244 16.212 20.0373 14.868 20.56L19.376 27H15.456ZM15.372 14.372C15.372 13.1213 14.9613 12.16 14.14 11.488C13.3187 10.816 12.1147 10.48 10.528 10.48H6.272V18.292H10.528C12.1147 18.292 13.3187 17.956 14.14 17.284C14.9613 16.5933 15.372 15.6227 15.372 14.372ZM31.6525 7.12C33.4071 7.12 34.9378 7.46533 36.2445 8.156C37.5511 8.84667 38.5591 9.87333 39.2685 11.236C39.9965 12.58 40.3605 14.2133 40.3605 16.136V27H36.7205V21.96H26.5285V27H22.9445V16.136C22.9445 14.2133 23.2991 12.58 24.0085 11.236C24.7365 9.87333 25.7538 8.84667 27.0605 8.156C28.3671 7.46533 29.8978 7.12 31.6525 7.12ZM36.7205 18.908V15.8C36.7205 13.9893 36.2725 12.6267 35.3765 11.712C34.4805 10.7787 33.2298 10.312 31.6245 10.312C30.0191 10.312 28.7685 10.7787 27.8725 11.712C26.9765 12.6267 26.5285 13.9893 26.5285 15.8V18.908H36.7205ZM54.0203 10.312C52.3403 10.312 51.071 10.6853 50.2123 11.432C49.3536 12.1787 48.9243 13.28 48.9243 14.736V16.416H57.4643V19.496H48.9243V27H45.2843V14.736C45.2843 12.3653 46.0403 10.508 47.5523 9.164C49.083 7.80133 51.183 7.12 53.8523 7.12C54.9723 7.12 56.0176 7.24133 56.9883 7.484C57.959 7.72667 58.8083 8.08133 59.5363 8.548L58.3883 11.516C57.231 10.7133 55.775 10.312 54.0203 10.312ZM70.3712 7.12C72.1259 7.12 73.6566 7.46533 74.9632 8.156C76.2699 8.84667 77.2779 9.87333 77.9872 11.236C78.7152 12.58 79.0792 14.2133 79.0792 16.136V27H75.4392V21.96H65.2472V27H61.6632V16.136C61.6632 14.2133 62.0179 12.58 62.7272 11.236C63.4552 9.87333 64.4726 8.84667 65.7792 8.156C67.0859 7.46533 68.6166 7.12 70.3712 7.12ZM75.4392 18.908V15.8C75.4392 13.9893 74.9912 12.6267 74.0952 11.712C73.1992 10.7787 71.9486 10.312 70.3432 10.312C68.7379 10.312 67.4872 10.7787 66.5912 11.712C65.6952 12.6267 65.2472 13.9893 65.2472 15.8V18.908H75.4392Z" fill="black"/>
<path d="M92.052 14.4H97.182C98.514 14.4 99.69 14.67 100.71 15.21C101.73 15.738 102.522 16.482 103.086 17.442C103.65 18.39 103.932 19.476 103.932 20.7C103.932 21.924 103.65 23.016 103.086 23.976C102.522 24.924 101.73 25.668 100.71 26.208C99.69 26.736 98.514 27 97.182 27H92.052V14.4ZM97.11 25.848C98.214 25.848 99.18 25.632 100.008 25.2C100.836 24.756 101.478 24.15 101.934 23.382C102.39 22.602 102.618 21.708 102.618 20.7C102.618 19.692 102.39 18.804 101.934 18.036C101.478 17.256 100.836 16.65 100.008 16.218C99.18 15.774 98.214 15.552 97.11 15.552H93.384V25.848H97.11ZM110.703 25.956C111.291 25.956 111.831 25.854 112.323 25.65C112.827 25.434 113.253 25.122 113.601 24.714L114.321 25.542C113.901 26.046 113.379 26.43 112.755 26.694C112.131 26.958 111.441 27.09 110.685 27.09C109.713 27.09 108.849 26.886 108.093 26.478C107.337 26.058 106.749 25.482 106.329 24.75C105.909 24.018 105.699 23.19 105.699 22.266C105.699 21.342 105.897 20.514 106.293 19.782C106.701 19.05 107.259 18.48 107.967 18.072C108.675 17.664 109.479 17.46 110.379 17.46C111.219 17.46 111.975 17.652 112.647 18.036C113.331 18.42 113.871 18.954 114.267 19.638C114.675 20.322 114.891 21.102 114.915 21.978L107.139 23.49C107.379 24.258 107.811 24.864 108.435 25.308C109.071 25.74 109.827 25.956 110.703 25.956ZM110.379 18.558C109.719 18.558 109.125 18.714 108.597 19.026C108.081 19.326 107.673 19.752 107.373 20.304C107.085 20.844 106.941 21.468 106.941 22.176C106.941 22.356 106.947 22.488 106.959 22.572L113.637 21.276C113.493 20.484 113.127 19.836 112.539 19.332C111.951 18.816 111.231 18.558 110.379 18.558ZM125.297 17.532L121.085 27H119.771L115.577 17.532H116.909L120.455 25.596L124.037 17.532H125.297Z" fill="#999999"/>
</svg>
